<?xml version="1.0" encoding="UTF-8"?>
<svg xmlns="http://www.w3.org/2000/svg" onmouseup="{ if(window.parent.document.onmouseup) window.parent.document.onmouseup(arguments[0]);}" xml:space="preserve" enable-background="new 0 0 733.8 233.1" viewBox="0 0 733.8 233.1" y="0px" x="0px" id="Layer_1" version="1.1" xmlns:xlink="http://www.w3.org/1999/xlink"><g><g><g><g><circle data-cppathid="10000" r="79.3" cy="84.6" cx="372.9" fill="#FFFFFF"/><path data-cppathid="10001" d="M457.4,115.8c0,8.6-6.9,15.5-15.5,15.5c-8.6,0-15.5-6.9-15.5-15.5c0-8.6,6.9-15.5,15.5-15.5      C450.5,100.3,457.4,107.2,457.4,115.8z" fill="#FFFFFF"/><circle data-cppathid="10002" r="15.5" cy="44.4" cx="309.6" fill="#FFFFFF"/></g><g><g><path data-cppathid="10003" d="M372.3,124.9c17.2-8,44.6-27.1,42.6-66.5c0,0-0.6-8.5-2.7-17.9c-0.9-5.4-3.8-5.2-3.8-5.2       c-2.3-0.2-5,2.2-5,2.2c-13.7,10.4-36.3,15.1-36.3,15.1c-41.8,11.3-47.9,33.1-45.8,49.2c0,0,0.1,0.6,0.1,0.8       c1.9,13.2,11.9,24,25,26.8c-11.9-28.4-11.3-43.7-11.2-44.4c0-0.5,0.4-0.9,0.9-1c0.5-0.1,1,0.2,1.1,0.7       c4.4,12.8,9.9,26.6,12,29.7c1.2-2.8,5.5-12.3,12.9-23.5c8.1-12.2,16.9-24.7,35.6-34.7c0.5-0.3,1.1-0.1,1.4,0.3       c0.3,0.5,0.2,1.1-0.2,1.4c-0.1,0.1-6.8,5.1-18.4,20.8c-10,13.6-22.1,34.8-24.7,60.5c0,0-0.1,1.4,0.6,1.7       c0.7,0.3,1.8,0.3,2.2-2.2C358.5,138.9,359.2,131.1,372.3,124.9z" fill="#7AC143"/></g><g><path data-cppathid="10004" d="M450.1,102.6c1.4-5.8,2.1-11.8,2.1-18.1c0-43.8-35.5-79.3-79.3-79.3c-21.4,0-40.8,8.5-55.1,22.3       c2.4,1.1,4.5,2.8,6.1,4.9c12.8-12,30-19.4,49-19.4c39.5,0,71.6,32.1,71.6,71.6c0,5.4-0.6,10.7-1.8,15.7c-0.3,0-0.5,0-0.8,0       c-8.6,0-15.5,6.9-15.5,15.5c0,8.6,6.9,15.5,15.5,15.5c8.6,0,15.5-6.9,15.5-15.5C457.4,110.2,454.5,105.4,450.1,102.6z" fill="#7AC143"/><path data-cppathid="10005" d="M372.9,156.2c-39.5,0-71.6-32.1-71.6-71.6c0-8.9,1.6-17.3,4.6-25.2c1.2,0.3,2.4,0.5,3.7,0.5       c8.6,0,15.5-6.9,15.5-15.5c0-8.6-6.9-15.5-15.5-15.5c-8.6,0-15.5,6.9-15.5,15.5c0,4.5,1.9,8.5,4.9,11.3       c-3.5,9-5.5,18.7-5.5,28.9c0,43.8,35.5,79.3,79.3,79.3c25.4,0,48.1-12,62.6-30.6c-2.5-0.9-4.7-2.4-6.4-4.3       C415.9,145.6,395.6,156.2,372.9,156.2z" fill="#7AC143"/></g></g></g><g><g><g><g><g><path data-cppathid="10006" d="M60.1,193h11l-0.7,3.7h-6.7l-1.7,8.4h6.4l-0.7,3.5h-6.3l-2.3,12h-4.2L60.1,193z" fill="#006325"/><path data-cppathid="10007" d="M74.2,220.9c-4.4,0-5.5-3.6-5.5-6.8c0-6.1,3.3-13.8,9.3-13.8c4.6,0,5.2,4,5.2,6.8         C83.2,212.8,80.3,220.9,74.2,220.9L74.2,220.9z M74.7,217.7c3,0,4.4-7.5,4.4-11c0-1.7-0.3-3.1-1.8-3.1         c-2.7,0-4.5,6.6-4.5,10.3C72.8,215.6,72.9,217.7,74.7,217.7L74.7,217.7z" fill="#006325"/><path data-cppathid="10008" d="M90.3,220.9c-4.4,0-5.5-3.6-5.5-6.8c0-6.1,3.3-13.8,9.3-13.8c4.6,0,5.2,4,5.2,6.8         C99.3,212.8,96.4,220.9,90.3,220.9L90.3,220.9z M90.8,217.7c3,0,4.4-7.5,4.4-11c0-1.7-0.3-3.1-1.8-3.1         c-2.7,0-4.5,6.6-4.5,10.3C88.9,215.6,89,217.7,90.8,217.7L90.8,217.7z" fill="#006325"/><path data-cppathid="10009" d="M118.2,192.3l-4.1,21.6c-0.4,2.1-0.8,4.8-1,6.7h-3.4l0.2-3h-0.1c-1.1,2-3,3.3-4.8,3.3         c-2.7,0-4.3-2.4-4.3-6.1c0-6.9,3.7-14.5,9.7-14.5c0.8,0,1.5,0.3,1.9,0.6l1.6-8.7H118.2z M111.8,204.2         c-0.3-0.4-0.8-0.7-1.5-0.7c-3.3,0-5.3,6.9-5.3,10.5c0,2.1,0.5,3.4,1.9,3.4c1.3,0,2.7-1.7,3.4-4.6L111.8,204.2z" fill="#006325"/><path data-cppathid="10010" d="M123.3,216.1c0.9,0.5,2.3,1,3.7,1c2.8,0,4.5-1.9,4.5-4.4c0-2-1-3.3-2.8-5c-2.1-2-3.3-4.2-3.3-6.7         c0-4.8,3.4-8.3,8.5-8.3c1.9,0,3.3,0.5,3.9,0.9l-1.2,3.6c-0.8-0.4-1.7-0.7-3-0.7c-2.4,0-4,1.7-4,4c0,1.6,0.8,2.9,2.8,4.7         c2.1,1.9,3.3,4.3,3.3,6.8c0,5.4-3.5,8.8-8.7,8.8c-2.5,0-4.2-0.6-4.8-1.1L123.3,216.1z" fill="#006325"/><path data-cppathid="10011" d="M147,220.6c0-1.1,0.1-2.2,0.2-3.5h-0.1c-1.8,3-3.6,3.9-5.1,3.9c-2.6,0-4.1-2.3-4.1-5.8         c0-6,3.1-14.8,11.3-14.8c1.7,0,3.5,0.3,4.5,0.7l-2.3,11.2c-0.5,2.5-0.9,6.1-0.8,8.3H147z M149.2,203.6         c-0.4-0.1-0.8-0.1-1.1-0.1c-3.8,0-6,7-6,10.5c0,2.1,0.3,3.4,1.7,3.4c1.7,0,3.3-3,4.1-6.8L149.2,203.6z" fill="#006325"/><path data-cppathid="10012" d="M154.4,220.6l3.2-16.9h-2.6l0.5-3h2.6l0.2-1c0.4-2.3,1.3-4.4,2.9-6c1.2-1.1,2.8-1.8,4.7-1.8         c1.2,0,2,0.2,2.6,0.4l-1,3.2c-0.4-0.1-0.9-0.2-1.5-0.2c-2,0-3.2,2.3-3.6,4.5l-0.2,0.9h3.8l-0.6,3h-3.8l-3.2,16.9H154.4z" fill="#006325"/><path data-cppathid="10013" d="M176.3,219.7c-1.6,0.8-3.2,1.2-5.3,1.2c-4.6,0-6.2-3.2-6.2-7.3c0-5.6,3.1-13.2,9.2-13.2         c3.3,0,4.7,2.5,4.8,5c0,5.2-4.3,7.2-9.8,7.1c-0.1,0.6-0.1,2.1,0.3,3.1c0.5,1.2,1.4,2,2.9,2c1.6,0,2.7-0.5,3.8-1L176.3,219.7z          M175,205.7c0-1.2-0.5-2-1.6-2c-1.6,0-3.3,2.1-4.1,5.6C172.3,209.4,175,208.3,175,205.7L175,205.7z" fill="#006325"/><path data-cppathid="10014" d="M188.1,195.7l-1,4.9h3.7l-0.6,3h-3.8l-1.9,10.1c-0.2,0.8-0.2,1.6-0.2,2.1c0,1.1,0.5,1.6,1.5,1.6         c0.4,0,0.9,0,1.3-0.1l-0.4,3.1c-0.8,0.3-1.8,0.3-2.6,0.3c-2.6,0-4-1.5-4-3.8c0-0.9,0.1-1.8,0.4-3.1l1.9-10.2H180l0.5-3h2.4         l0.7-3.5L188.1,195.7z" fill="#006325"/><path data-cppathid="10015" d="M196,200.7l0.4,10.3c0.1,1.9,0.1,3.1,0.1,4.8h0.1c0.5-1.7,0.9-3.1,1.6-5.1l3.5-10h4.2l-6.6,15.9         c-1.9,4.5-4.1,8.3-6.6,10.5c-1.2,1.1-2.5,1.9-3.3,2.2l-1.7-3.4c0.9-0.4,1.9-1,2.8-1.8c1.2-0.9,2.4-2.4,2.9-3.7         c0.1-0.3,0.2-0.6,0.1-1l-2-18.8H196z" fill="#006325"/><path data-cppathid="10016" d="M216.4,196.9h-4.9l0.8-3.9h13.9l-0.8,3.9h-4.9l-4.5,23.7h-4.1L216.4,196.9z" fill="#006325"/><path data-cppathid="10017" d="M221.6,220.6l2.5-13.5c0.5-2.4,0.7-4.8,0.9-6.5h3.6c-0.1,1-0.1,2.1-0.3,3.5h0.1         c1.4-2.5,3.1-3.8,5-3.8c0.3,0,0.5,0,0.7,0.1l-0.8,4.2c-0.1,0-0.4,0-0.6,0c-2.4,0-4.5,3.1-5.1,6.2l-1.8,9.8H221.6z" fill="#006325"/><path data-cppathid="10018" d="M241.7,220.6c0-1.1,0.1-2.2,0.2-3.5h-0.1c-1.8,3-3.6,3.9-5.1,3.9c-2.6,0-4.1-2.3-4.1-5.8         c0-6,3.1-14.8,11.3-14.8c1.7,0,3.5,0.3,4.5,0.7l-2.3,11.2c-0.5,2.5-0.9,6.1-0.8,8.3H241.7z M243.8,203.6         c-0.4-0.1-0.8-0.1-1.1-0.1c-3.8,0-6,7-6,10.5c0,2.1,0.3,3.4,1.7,3.4c1.7,0,3.3-3,4.1-6.8L243.8,203.6z" fill="#006325"/><path data-cppathid="10019" d="M248.4,220.6l3.8-19.9h4.1l-3.8,19.9H248.4z M255.1,197.5c-1.5,0-2.2-1.1-2.2-2.6         c0.1-1.4,1.1-3,2.7-3c1.6,0,2.3,1.2,2.3,2.6C257.9,196.5,256.6,197.5,255.1,197.5L255.1,197.5z" fill="#006325"/><path data-cppathid="10020" d="M256.5,220.6l2.5-13.3c0.5-2.6,0.8-4.9,1-6.6h3.6l-0.3,2.8h0.1c1.5-2.1,3.3-3.2,5.4-3.2         c2.7,0,3.7,2,3.7,4.2c0,1.2-0.2,2.3-0.4,3.6l-2.4,12.5h-4.1l2.4-12.6c0.2-0.8,0.3-1.5,0.3-2.4c0-1.1-0.4-1.8-1.4-1.8         c-1.5,0-3.4,2.2-4.1,6l-2,10.8H256.5z" fill="#006325"/><path data-cppathid="10021" d="M273.5,220.6l3.8-19.9h4.1l-3.8,19.9H273.5z M280.2,197.5c-1.5,0-2.2-1.1-2.2-2.6         c0.1-1.4,1.1-3,2.7-3c1.6,0,2.3,1.2,2.3,2.6C283,196.5,281.7,197.5,280.2,197.5L280.2,197.5z" fill="#006325"/><path data-cppathid="10022" d="M281.6,220.6l2.5-13.3c0.5-2.6,0.8-4.9,1-6.6h3.6l-0.3,2.8h0.1c1.5-2.1,3.3-3.2,5.4-3.2         c2.7,0,3.7,2,3.7,4.2c0,1.2-0.2,2.3-0.4,3.6l-2.4,12.5h-4.1l2.4-12.6c0.2-0.8,0.3-1.5,0.3-2.4c0-1.1-0.4-1.8-1.4-1.8         c-1.5,0-3.4,2.2-4.1,6l-2,10.8H281.6z" fill="#006325"/><path data-cppathid="10023" d="M299.3,224.6c0.8,0.5,2.1,0.9,3.2,0.9c2.9,0,4.3-2.1,4.9-5.3l0.6-2.7h-0.1c-1.5,2.4-3.1,3.1-4.6,3.1         c-2.5,0-4-2.3-4-5.7c-0.1-6.1,3.4-14.6,10.6-14.6c1.9,0,3.7,0.5,5,1.1l-3.2,17.1c-0.7,3.8-1.7,6.5-3.3,8         c-1.5,1.5-3.6,2.2-6.1,2.2c-1.5,0-3.3-0.4-4.1-0.9L299.3,224.6z M310.4,203.9c-0.4-0.2-0.8-0.3-1.4-0.3         c-3.4,0-5.6,6.3-5.6,10c0,1.9,0.2,3.7,1.7,3.7c1.8,0,3.3-3.2,3.7-5.3L310.4,203.9z" fill="#006325"/><path data-cppathid="10024" d="M321.5,220.6l3.2-16.9h-2.6l0.5-3h2.6l0.2-1c0.4-2.3,1.3-4.4,2.9-6c1.2-1.1,2.8-1.8,4.7-1.8         c1.2,0,2,0.2,2.6,0.4l-1,3.2c-0.4-0.1-0.9-0.2-1.5-0.2c-2,0-3.2,2.3-3.6,4.5l-0.2,0.9h3.8l-0.6,3h-3.8l-3.2,16.9H321.5z" fill="#006325"/><path data-cppathid="10025" d="M337.3,220.9c-4.4,0-5.5-3.6-5.5-6.8c0-6.1,3.3-13.8,9.3-13.8c4.6,0,5.2,4,5.2,6.8         C346.4,212.8,343.4,220.9,337.3,220.9L337.3,220.9z M337.8,217.7c3,0,4.4-7.5,4.4-11c0-1.7-0.3-3.1-1.8-3.1         c-2.7,0-4.5,6.6-4.5,10.3C335.9,215.6,336,217.7,337.8,217.7L337.8,217.7z" fill="#006325"/><path data-cppathid="10026" d="M347.1,220.6l2.5-13.5c0.5-2.4,0.7-4.8,0.9-6.5h3.6c-0.1,1-0.1,2.1-0.3,3.5h0.1         c1.4-2.5,3.1-3.8,5-3.8c0.3,0,0.5,0,0.7,0.1l-0.8,4.2c-0.1,0-0.4,0-0.6,0c-2.4,0-4.5,3.1-5.1,6.2l-1.8,9.8H347.1z" fill="#006325"/><path data-cppathid="10027" d="M373.2,195.7l-1,4.9h3.7l-0.6,3h-3.8l-1.9,10.1c-0.2,0.8-0.2,1.6-0.2,2.1c0,1.1,0.5,1.6,1.5,1.6         c0.4,0,0.9,0,1.3-0.1l-0.4,3.1c-0.8,0.3-1.8,0.3-2.6,0.3c-2.6,0-4-1.5-4-3.8c0-0.9,0.1-1.8,0.4-3.1l1.9-10.2h-2.3l0.5-3h2.4         l0.7-3.5L373.2,195.7z" fill="#006325"/><path data-cppathid="10028" d="M374.5,220.6l5.4-28.3h4.2l-2.1,11l0.1,0c1.3-1.8,2.9-2.9,5-2.9c2.5,0,3.5,1.8,3.5,4.2         c0,1.1-0.2,2.2-0.4,3.6l-2.4,12.4h-4.1l2.4-12.4c0.1-0.8,0.2-1.8,0.2-2.6c0-1.1-0.4-1.8-1.4-1.8c-1.5,0-3.4,2.3-4,5.4         l-2.2,11.4H374.5z" fill="#006325"/><path data-cppathid="10029" d="M403.8,219.7c-1.6,0.8-3.2,1.2-5.3,1.2c-4.6,0-6.2-3.2-6.2-7.3c0-5.6,3.1-13.2,9.2-13.2         c3.3,0,4.7,2.5,4.8,5c0,5.2-4.3,7.2-9.8,7.1c-0.1,0.6-0.1,2.1,0.3,3.1c0.5,1.2,1.4,2,2.9,2c1.6,0,2.7-0.5,3.8-1L403.8,219.7z          M402.5,205.7c0-1.2-0.5-2-1.6-2c-1.6,0-3.3,2.1-4.1,5.6C399.8,209.4,402.5,208.3,402.5,205.7L402.5,205.7z" fill="#006325"/><path data-cppathid="10030" d="M417.7,193h4.2l-4.6,24h7.1l-0.7,3.6h-11.2L417.7,193z" fill="#006325"/><path data-cppathid="10031" d="M437.4,219.7c-1.6,0.8-3.2,1.2-5.3,1.2c-4.6,0-6.2-3.2-6.2-7.3c0-5.6,3.1-13.2,9.2-13.2         c3.3,0,4.7,2.5,4.8,5c0,5.2-4.3,7.2-9.8,7.1c-0.1,0.6-0.1,2.1,0.3,3.1c0.5,1.2,1.4,2,2.9,2c1.6,0,2.7-0.5,3.8-1L437.4,219.7z          M436.1,205.7c0-1.2-0.5-2-1.6-2c-1.6,0-3.3,2.1-4.1,5.6C433.3,209.4,436.1,208.3,436.1,205.7L436.1,205.7z" fill="#006325"/><path data-cppathid="10032" d="M449.5,220.6c0-1.1,0.1-2.2,0.2-3.5h-0.1c-1.8,3-3.6,3.9-5.1,3.9c-2.6,0-4.1-2.3-4.1-5.8         c0-6,3.1-14.8,11.3-14.8c1.7,0,3.5,0.3,4.5,0.7l-2.3,11.2c-0.5,2.5-0.9,6.1-0.8,8.3H449.5z M451.6,203.6         c-0.4-0.1-0.8-0.1-1.1-0.1c-3.8,0-6,7-6,10.5c0,2.1,0.3,3.4,1.7,3.4c1.7,0,3.3-3,4.1-6.8L451.6,203.6z" fill="#006325"/><path data-cppathid="10033" d="M456.9,220.6l3.2-16.9h-2.6l0.5-3h2.6l0.2-1c0.4-2.3,1.3-4.4,2.9-6c1.2-1.1,2.8-1.8,4.7-1.8         c1.2,0,2,0.2,2.6,0.4l-1,3.2c-0.4-0.1-0.9-0.2-1.5-0.2c-2,0-3.2,2.3-3.6,4.5l-0.2,0.9h3.8l-0.6,3h-3.8l-3.2,16.9H456.9z" fill="#006325"/><path data-cppathid="10034" d="M472.7,200.7l0.4,10.3c0.1,1.9,0.1,3.1,0.1,4.8h0.1c0.5-1.7,0.9-3.1,1.6-5.1l3.5-10h4.2l-6.6,15.9         c-1.9,4.5-4.1,8.3-6.6,10.5c-1.2,1.1-2.5,1.9-3.3,2.2l-1.7-3.4c0.9-0.4,1.9-1,2.8-1.8c1.2-0.9,2.4-2.4,2.9-3.7         c0.1-0.3,0.2-0.6,0.1-1l-2-18.8H472.7z" fill="#006325"/><path data-cppathid="10035" d="M501.7,219.9c-1.4,0.6-3.1,1-5,1c-3.1,0-5-1.1-6.4-2.9c-1.3-1.7-2-4.4-2-6.9c0-5.4,1.7-11,5.3-14.7         c2.3-2.4,5.4-3.6,8.5-3.6c2,0,3.2,0.3,3.9,0.7l-1.3,3.7c-0.7-0.3-1.8-0.5-2.9-0.5c-1.9,0-3.5,0.6-5,2.1         c-2.4,2.4-4.1,7.3-4.1,12.2c0,3.9,1.2,6.3,4,6.3c0.7,0,1.2-0.1,1.7-0.2l1.5-7.9H497l0.7-3.4h6.8L501.7,219.9z" fill="#006325"/><path data-cppathid="10036" d="M505.2,220.6l2.5-13.5c0.5-2.4,0.7-4.8,0.9-6.5h3.6c-0.1,1-0.1,2.1-0.3,3.5h0.1         c1.4-2.5,3.1-3.8,5-3.8c0.3,0,0.5,0,0.7,0.1l-0.8,4.2c-0.1,0-0.4,0-0.6,0c-2.4,0-4.5,3.1-5.1,6.2l-1.8,9.8H505.2z" fill="#006325"/><path data-cppathid="10037" d="M528.3,219.7c-1.6,0.8-3.2,1.2-5.3,1.2c-4.6,0-6.2-3.2-6.2-7.3c0-5.6,3.1-13.2,9.2-13.2         c3.3,0,4.7,2.5,4.8,5c0,5.2-4.3,7.2-9.8,7.1c-0.1,0.6-0.1,2.1,0.3,3.1c0.5,1.2,1.4,2,2.9,2c1.6,0,2.7-0.5,3.8-1L528.3,219.7z          M527,205.7c0-1.2-0.5-2-1.6-2c-1.6,0-3.3,2.1-4.1,5.6C524.3,209.4,527,208.3,527,205.7L527,205.7z" fill="#006325"/><path data-cppathid="10038" d="M543.1,219.7c-1.6,0.8-3.2,1.2-5.3,1.2c-4.6,0-6.2-3.2-6.2-7.3c0-5.6,3.1-13.2,9.2-13.2         c3.3,0,4.7,2.5,4.8,5c0,5.2-4.3,7.2-9.8,7.1c-0.1,0.6-0.1,2.1,0.3,3.1c0.5,1.2,1.4,2,2.9,2c1.6,0,2.7-0.5,3.8-1L543.1,219.7z          M541.8,205.7c0-1.2-0.5-2-1.6-2c-1.6,0-3.3,2.1-4.1,5.6C539,209.4,541.8,208.3,541.8,205.7L541.8,205.7z" fill="#006325"/><path data-cppathid="10039" d="M545.5,220.6l2.5-13.3c0.5-2.6,0.8-4.9,1-6.6h3.6l-0.3,2.8h0.1c1.5-2.1,3.3-3.2,5.4-3.2         c2.7,0,3.7,2,3.7,4.2c0,1.2-0.2,2.3-0.4,3.6l-2.4,12.5h-4.1l2.4-12.6c0.2-0.8,0.3-1.5,0.3-2.4c0-1.1-0.4-1.8-1.4-1.8         c-1.5,0-3.4,2.2-4.1,6l-2,10.8H545.5z" fill="#006325"/><path data-cppathid="10040" d="M563,216.8c0.7,0.4,1.7,0.9,3.1,0.9c1.7,0,2.7-1.2,2.7-2.7c0-1.4-0.7-2.3-2-3.4         c-1.6-1.3-2.5-3.1-2.5-4.9c0-3.5,2.7-6.4,6.8-6.4c1.6,0,2.8,0.3,3.5,0.8l-1,3.1c-0.6-0.3-1.5-0.6-2.3-0.6         c-1.8,0-2.9,1.1-2.9,2.6c0,1.2,0.7,2,1.7,2.8c1.9,1.6,2.9,3.5,2.9,5.2c0,4.3-2.9,6.7-7.1,6.7c-1.7,0-3.3-0.6-4-1L563,216.8z" fill="#006325"/><path data-cppathid="10041" d="M590.3,193l-5.3,27.6h-4.1l5.2-27.6H590.3z" fill="#006325"/><path data-cppathid="10042" d="M589.3,220.6l2.5-13.3c0.5-2.6,0.8-4.9,1-6.6h3.6l-0.3,2.8h0.1c1.5-2.1,3.3-3.2,5.4-3.2         c2.7,0,3.7,2,3.7,4.2c0,1.2-0.2,2.3-0.4,3.6l-2.4,12.5h-4.1l2.4-12.6c0.2-0.8,0.3-1.5,0.3-2.4c0-1.1-0.4-1.8-1.4-1.8         c-1.5,0-3.4,2.2-4.1,6l-2,10.8H589.3z" fill="#006325"/><path data-cppathid="10043" d="M624.4,192.3l-4.1,21.6c-0.4,2.1-0.8,4.8-1,6.7h-3.4l0.2-3h-0.1c-1.1,2-3,3.3-4.8,3.3         c-2.7,0-4.3-2.4-4.3-6.1c0-6.9,3.7-14.5,9.7-14.5c0.8,0,1.5,0.3,1.9,0.6l1.6-8.7H624.4z M618,204.2c-0.3-0.4-0.8-0.7-1.5-0.7         c-3.3,0-5.3,6.9-5.3,10.5c0,2.1,0.5,3.4,1.9,3.4c1.3,0,2.7-1.7,3.4-4.6L618,204.2z" fill="#006325"/><path data-cppathid="10044" d="M639.7,200.7l-2.5,13.3c-0.5,2.6-0.8,4.9-1,6.6h-3.6l0.2-2.9l-0.1,0c-1.5,2.3-3.3,3.2-5.3,3.2         c-2.5,0-3.6-2-3.6-4.4c0-1.2,0.2-2.4,0.4-3.7l2.3-12.2h4.1l-2.2,11.9c-0.2,1.2-0.4,2.2-0.4,3.2c0,1.1,0.4,1.8,1.5,1.8         c1.6,0,3.2-2.2,3.8-5.3l2.2-11.5H639.7z" fill="#006325"/><path data-cppathid="10045" d="M640.3,216.8c0.7,0.4,1.7,0.9,3.1,0.9c1.7,0,2.7-1.2,2.7-2.7c0-1.4-0.7-2.3-2-3.4         c-1.6-1.3-2.5-3.1-2.5-4.9c0-3.5,2.7-6.4,6.8-6.4c1.6,0,2.8,0.3,3.5,0.8l-1,3.1c-0.6-0.3-1.5-0.6-2.3-0.6         c-1.8,0-2.9,1.1-2.9,2.6c0,1.2,0.7,2,1.7,2.8c1.9,1.6,2.9,3.5,2.9,5.2c0,4.3-2.9,6.7-7.1,6.7c-1.7,0-3.3-0.6-4-1L640.3,216.8         z" fill="#006325"/><path data-cppathid="10046" d="M661.3,195.7l-1,4.9h3.7l-0.6,3h-3.8l-1.9,10.1c-0.2,0.8-0.2,1.6-0.2,2.1c0,1.1,0.5,1.6,1.5,1.6         c0.4,0,0.9,0,1.3-0.1l-0.4,3.1c-0.8,0.3-1.8,0.3-2.6,0.3c-2.6,0-4-1.5-4-3.8c0-0.9,0.1-1.8,0.4-3.1l1.9-10.2h-2.3l0.5-3h2.4         l0.7-3.5L661.3,195.7z" fill="#006325"/><path data-cppathid="10047" d="M662.6,220.6l2.5-13.5c0.5-2.4,0.7-4.8,0.9-6.5h3.6c-0.1,1-0.1,2.1-0.3,3.5h0.1         c1.4-2.5,3.1-3.8,5-3.8c0.3,0,0.5,0,0.7,0.1l-0.8,4.2c-0.1,0-0.4,0-0.6,0c-2.4,0-4.5,3.1-5.1,6.2l-1.8,9.8H662.6z" fill="#006325"/><path data-cppathid="10048" d="M680.9,200.7l0.4,10.3c0.1,1.9,0.1,3.1,0.1,4.8h0.1c0.5-1.7,0.9-3.1,1.6-5.1l3.5-10h4.2l-6.6,15.9         c-1.9,4.5-4.1,8.3-6.6,10.5c-1.2,1.1-2.5,1.9-3.3,2.2l-1.7-3.4c0.9-0.4,1.9-1,2.8-1.8c1.2-0.9,2.4-2.4,2.9-3.7         c0.1-0.3,0.2-0.6,0.1-1l-2-18.8H680.9z" fill="#006325"/></g></g></g></g></g></g><g><g><g><g><g><g><g><path data-cppathid="10049" d="M6.6,119.8l0.6-3.4c5.6-0.4,6.9-1.5,6.9-6.2V58.5c0-4.6-1.3-5.7-6.9-6.2l-0.6-3.4h26.8l-0.6,3.4          c-6.4,0.2-7.8,1.4-7.8,6.2v49.3c0,4.8,2.3,6.5,8.6,6.5c13.1,0,14.5-1,17.1-10.5l4.6,0.3l-2.1,15.7H6.6z" fill="#006325"/><path data-cppathid="10050" d="M94.9,89.3h32.3l-0.6,3.4c-6.4,0.2-7.8,1.4-7.8,6.2v16.7c-3.6,1.6-5,2.1-8,3          c-6.7,2.1-14.3,3.4-21.2,3.4c-22.5,0-37.5-14.7-37.5-36.7c0-11.9,4.5-23,11.8-29.5c6.4-5.8,15.7-8.7,27.4-8.7          c9.9,0,20.2,1.7,26.6,4.4l0.5,15.1l-4.5,0.2c-0.4-2.9-1.8-5.9-4.2-8.9c-3.8-4.6-9.3-6.4-19.3-6.4c-16,0-26.3,12.4-26.3,31.6          c0,20.9,11.5,34.4,29.3,34.4c4.7,0,8.6-1,14.7-3.4V98.9c0-5.1-1.2-5.6-12.5-6.2L94.9,89.3z" fill="#006325"/><path data-cppathid="10051" d="M121.5,119.8l0.6-3.4c5.9-0.5,6.8-1.6,7.4-9.1l3.8-48.7c0-0.2,0-0.4,0-0.6c0-3.8-1.6-5.1-6.9-5.5          l-0.6-3.4h20.6l20.1,56.4h0.7l21.3-56.4H208l-0.6,3.4c-5.4,0.4-6.9,1.6-6.9,5.6c0,0.2,0,0.3,0,0.5l3.4,51.4          c0.3,4.6,1.7,6.1,6.7,6.5l0.6,3.4h-25.1l0.6-3.4c5.7-0.7,6.4-1.4,6.4-6.2c0-0.3,0-0.7,0-1.1L190.3,66h-2.2l-19.6,53.7h-8          L140.9,66h-1.6l-3.4,42.8c0,0.4,0,1,0,1.4c0,4.8,0.5,5.2,6.3,6.2l0.6,3.4H121.5z" fill="#006325"/><path data-cppathid="10052" d="M209.1,119.8l0.5-3.5c4.1-0.4,5.9-1.5,6.9-4.1l25.4-65.8h5.3l26,63.4c2,4.8,3.6,6.1,8,6.6l0.7,3.5          h-26.3l0.6-3.5c4.7-0.6,6.1-1.4,6.1-3.3c0-1.2-0.3-2.5-1.1-4.1l-5-12.2c-4.1-0.5-5.2-0.5-13.4-0.5c-8.2,0-9.3,0-13.5,0.5          l-4.4,12.2c-0.6,1.6-1,3-1.1,4.1v0.1c0,1.7,1.4,2.4,6.1,3.2l0.7,3.5H209.1z M231.7,91h22.6l-11.7-28.1h-0.7L231.7,91z" fill="#006325"/></g></g></g></g></g></g></g><g><g><g><path data-cppathid="10053" d="M487.7,120l0.5-3.4c5.7-0.4,7-1.5,7-6.2V54.9c-1.8,0-3.4,0-4.8,0c-13,0-14.4,1-15.2,10.3l-4.2-0.7V49.3      h59.2v15.2l-4.2,0.7c-0.8-9.4-2.1-10.3-15.2-10.3c-1.2,0-2.8,0-4.8,0v55.6c0,4.7,1.3,5.7,6.9,6.2l0.5,3.4H487.7z" fill="#006325"/><path data-cppathid="10054" d="M532.8,120l0.6-3.4c5.6-0.4,6.9-1.5,6.9-6.2V58.8c0-4.6-1.3-5.7-6.9-6.2l-0.6-3.4h48.2v15.2l-4.3,0.7      c-0.7-8.9-3.2-10.7-14.5-10.7c-2.8,0-5.1,0.2-11,1.2v25.7h4.9l8.7-0.3c3.4-0.2,4.5-1.8,5.1-7.5h3.5v21.4h-3.5      c-0.2-2.8-0.3-3.5-0.8-4.6l-1.1-2.4c-0.6-1.4-1-1.5-3.9-1.5l-8.5-0.2l-4.3,0.3v21.6c0,5,2,6.4,9.1,6.4c10.4,0,16.2-0.6,17.6-1.9      c1.2-1.2,2.4-4,3.6-8.6l4.6,0.3L584,120H532.8z" fill="#006325"/><path data-cppathid="10055" d="M650.9,116.5c-2.7,1.3-3.5,1.6-7.3,2.5c-8.6,2.2-13.7,3.1-20.4,3.1c-23.4,0-38.3-14.3-38.3-36.7      c0-11.9,4.5-23,11.8-29.5c6.5-5.8,15.7-8.7,27.5-8.7c5.9,0,13,0.7,18.9,2c3.1,0.6,4.5,1.1,7.5,2.3l0.5,15.1l-4.6,0.2      c-0.3-2.9-1.7-6-4.1-8.9c-3.8-4.6-9.3-6.4-19.2-6.4c-16.1,0-26.4,12.3-26.4,31.6c0,6.8,1.7,14.4,4.2,19.6      c1.1,2.2,2.7,4.3,4.7,6.4c5.1,5.3,12.2,8.4,19.4,8.4c5.4,0,12-2,16.8-5.1c1.1-0.6,1.9-1.4,2.4-2.1c1.2-1.7,2.9-5.6,3.8-9      l4.6,0.3L650.9,116.5z" fill="#006325"/><path data-cppathid="10056" d="M653.6,120l0.6-3.4c5.6-0.4,6.9-1.5,6.9-6.2V58.8c0-4.6-1.3-5.7-6.9-6.2l-0.6-3.4h25.9l-0.6,3.4      c-5.6,0.4-6.9,1.6-6.9,6.2v21.3h37.9V58.8c0-4.6-1.4-5.7-7-6.2l-0.5-3.4h25.8l-0.5,3.4c-5.6,0.4-6.9,1.6-6.9,6.2v51.6      c0,4.7,1.3,5.7,6.9,6.2l0.5,3.4h-25.8l0.5-3.4c5.7-0.4,7-1.5,7-6.2V85.9c-9.3-0.5-13.4-0.7-19-0.7c-5.6,0-9.5,0.2-18.9,0.7v24.6      c0,4.7,1.3,5.7,6.9,6.2l0.6,3.4H653.6z" fill="#006325"/></g></g></g></g></svg>