<?xml version="1.0" encoding="UTF-8"?>
<svg xmlns="http://www.w3.org/2000/svg" onmouseup="{ if(window.parent.document.onmouseup) window.parent.document.onmouseup(arguments[0]);}" xml:space="preserve" enable-background="new 0 82 360 88" viewBox="0 82 360 88" y="0px" x="0px" id="Layer_1" version="1.1" xmlns:xlink="http://www.w3.org/1999/xlink"><g><g><path data-cppathid="10000" d="M52.1,164.1l-1.7-52.7c0,0,14.5,8,15,25.5C65.9,154.4,52.1,164.1,52.1,164.1z" fill="#6D6E71"/><path data-cppathid="10001" d="M42.2,149h-2.6l-11.8-11.9v12.1l-12.2-12.2v12.4L4.8,137.3c0,0,0-29.7,33.5-30.5l5.5,2.6L42.2,149z" fill="#6D6E71"/><path data-cppathid="10002" d="M30.2,86.4c0,0,8.7,0.8,14.5,9.3c0,0,5,6.6,3.6,15.7c0,0-8.7-0.9-14.5-9.7C33.8,101.8,29.1,95.2,30.2,86.4    z" fill="#8DC63F"/><path data-cppathid="10003" d="M81.7,95.1c0,0-3.4,11-15.3,15.7c0,0-8,3.9-18.5,0.5c0,0,2.8-10.8,15.1-15.5    C63.1,95.8,71.9,91.7,81.7,95.1z" fill="#8DC63F"/></g><g enable-background="new    "><path data-cppathid="10004" d="M88.5,113.8h14.8v3H92v9.1h10.4v2.9H92v12.4h-3.5V113.8z" fill="#6D6E71"/><path data-cppathid="10005" d="M124.7,131.2c0,7.3-5,10.4-9.8,10.4c-5.3,0-9.4-3.9-9.4-10.1c0-6.6,4.3-10.4,9.8-10.4    C120.9,121.1,124.7,125.2,124.7,131.2z M109.1,131.4c0,4.3,2.5,7.6,6,7.6c3.4,0,6-3.2,6-7.6c0-3.3-1.7-7.6-5.9-7.6    S109.1,127.7,109.1,131.4z" fill="#6D6E71"/><path data-cppathid="10006" d="M147,131.2c0,7.3-5,10.4-9.8,10.4c-5.3,0-9.4-3.9-9.4-10.1c0-6.6,4.3-10.4,9.8-10.4    C143.2,121.1,147,125.2,147,131.2z M131.4,131.4c0,4.3,2.5,7.6,6,7.6c3.4,0,6-3.2,6-7.6c0-3.3-1.7-7.6-5.9-7.6    S131.4,127.7,131.4,131.4z" fill="#6D6E71"/><path data-cppathid="10007" d="M168.5,112.4v23.8c0,1.7,0,3.7,0.2,5.1h-3.2l-0.2-3.4h-0.1c-1.1,2.2-3.5,3.9-6.7,3.9c-4.8,0-8.4-4-8.4-10    c0-6.5,4-10.6,8.8-10.6c3,0,5,1.4,5.9,3h0.1v-11.7H168.5z M164.9,129.6c0-0.4,0-1.1-0.2-1.5c-0.5-2.3-2.5-4.1-5.2-4.1    c-3.7,0-5.9,3.3-5.9,7.6c0,4,2,7.3,5.8,7.3c2.4,0,4.6-1.6,5.2-4.3c0.1-0.5,0.2-1,0.2-1.5V129.6z" fill="#6D6E71"/><path data-cppathid="10008" d="M182.7,136.9c1.6,1,3.9,1.8,6.3,1.8c3.6,0,5.7-1.9,5.7-4.7c0-2.6-1.5-4-5.2-5.4c-4.5-1.6-7.2-3.9-7.2-7.8    c0-4.3,3.5-7.4,8.9-7.4c2.8,0,4.8,0.7,6.1,1.3l-1,2.9c-0.9-0.5-2.7-1.3-5.2-1.3c-3.7,0-5.2,2.2-5.2,4.1c0,2.6,1.7,3.8,5.4,5.3    c4.6,1.8,7,4,7,8c0,4.2-3.1,7.9-9.6,7.9c-2.6,0-5.5-0.8-7-1.7L182.7,136.9z" fill="#6D6E71"/><path data-cppathid="10009" d="M214.1,141.2l-0.3-2.5h-0.1c-1.1,1.5-3.2,2.9-6,2.9c-4,0-6-2.8-6-5.7c0-4.8,4.2-7.4,11.8-7.3v-0.4    c0-1.6-0.4-4.6-4.5-4.6c-1.8,0-3.7,0.6-5.1,1.5l-0.8-2.4c1.6-1.1,4-1.7,6.5-1.7c6,0,7.5,4.1,7.5,8v7.4c0,1.7,0.1,3.4,0.3,4.7    H214.1z M213.6,131.2c-3.9-0.1-8.3,0.6-8.3,4.4c0,2.3,1.5,3.4,3.4,3.4c2.6,0,4.2-1.6,4.8-3.3c0.1-0.4,0.2-0.8,0.2-1.1V131.2z" fill="#6D6E71"/><path data-cppathid="10010" d="M223.2,141.2v-17h-2.8v-2.7h2.8v-0.9c0-2.8,0.6-5.3,2.3-6.9c1.3-1.3,3.1-1.8,4.8-1.8c1.3,0,2.4,0.3,3,0.6    l-0.5,2.8c-0.5-0.2-1.3-0.4-2.3-0.4c-3,0-3.8,2.7-3.8,5.7v1.1h4.8v2.7h-4.8v17H223.2z" fill="#6D6E71"/><path data-cppathid="10011" d="M236.1,132.1c0.1,4.8,3.2,6.8,6.7,6.8c2.6,0,4.1-0.4,5.4-1l0.6,2.6c-1.3,0.6-3.4,1.2-6.5,1.2    c-6.1,0-9.7-4-9.7-9.9c0-5.9,3.5-10.6,9.2-10.6c6.4,0,8.1,5.7,8.1,9.3c0,0.7-0.1,1.3-0.1,1.7H236.1z M246.6,129.5    c0-2.3-0.9-5.8-5-5.8c-3.6,0-5.2,3.3-5.5,5.8H246.6z" fill="#6D6E71"/><path data-cppathid="10012" d="M258.8,115.9v5.7h5.1v2.7h-5.1v10.6c0,2.4,0.7,3.8,2.7,3.8c0.9,0,1.6-0.1,2.1-0.2l0.2,2.7    c-0.7,0.3-1.8,0.5-3.2,0.5c-1.7,0-3-0.5-3.9-1.5c-1-1.1-1.4-2.8-1.4-5.1v-10.7h-3v-2.7h3v-4.7L258.8,115.9z" fill="#6D6E71"/><path data-cppathid="10013" d="M269.6,121.6l4.3,11.6c0.4,1.3,0.9,2.8,1.3,4h0.1c0.4-1.2,0.8-2.7,1.3-4.1l3.9-11.5h3.8l-5.4,14    c-2.6,6.7-4.3,10.2-6.7,12.3c-1.7,1.5-3.5,2.2-4.4,2.3l-0.9-3c0.9-0.3,2.1-0.9,3.1-1.7c1-0.8,2.2-2.2,3-4c0.2-0.4,0.3-0.7,0.3-0.9    s-0.1-0.5-0.2-0.9l-7.3-18.1H269.6z" fill="#6D6E71"/></g><g enable-background="new    "><path data-cppathid="10014" d="M316.6,140.3c-1.3,0.7-3.9,1.3-7.2,1.3c-7.7,0-13.5-4.9-13.5-13.9c0-8.6,5.8-14.4,14.3-14.4    c3.4,0,5.6,0.7,6.5,1.2l-0.9,2.9c-1.3-0.7-3.3-1.1-5.5-1.1c-6.4,0-10.7,4.1-10.7,11.3c0,6.7,3.9,11,10.5,11c2.2,0,4.3-0.4,5.8-1.1    L316.6,140.3z" fill="#8DC63F"/><path data-cppathid="10015" d="M327.4,116.8h-8.3v-3h20.3v3H331v24.4h-3.6V116.8z" fill="#8DC63F"/><path data-cppathid="10016" d="M341.7,136.9c1.6,1,3.9,1.8,6.3,1.8c3.6,0,5.7-1.9,5.7-4.7c0-2.6-1.5-4-5.2-5.4c-4.5-1.6-7.2-3.9-7.2-7.8    c0-4.3,3.5-7.4,8.9-7.4c2.8,0,4.8,0.7,6.1,1.3l-1,2.9c-0.9-0.5-2.7-1.3-5.2-1.3c-3.7,0-5.2,2.2-5.2,4.1c0,2.6,1.7,3.8,5.4,5.3    c4.6,1.8,7,4,7,8c0,4.2-3.1,7.9-9.6,7.9c-2.6,0-5.5-0.8-7-1.7L341.7,136.9z" fill="#8DC63F"/></g><g enable-background="new    "><path data-cppathid="10017" d="M94.4,162.2c-0.4,0.2-1.2,0.4-2.1,0.4c-2.3,0-4-1.4-4-4.1c0-2.5,1.7-4.3,4.2-4.3c1,0,1.6,0.2,1.9,0.4    l-0.3,0.9c-0.4-0.2-1-0.3-1.6-0.3c-1.9,0-3.2,1.2-3.2,3.3c0,2,1.1,3.3,3.1,3.3c0.6,0,1.3-0.1,1.7-0.3L94.4,162.2z" fill="#6D6E71"/><path data-cppathid="10018" d="M100.3,160.9c0,0.6,0,1.1,0,1.6h-0.9l-0.1-0.9h0c-0.3,0.5-0.9,1.1-1.9,1.1c-0.9,0-2-0.5-2-2.5v-3.4h1.1    v3.2c0,1.1,0.3,1.8,1.3,1.8c0.7,0,1.2-0.5,1.4-1c0.1-0.2,0.1-0.3,0.1-0.5v-3.6h1.1V160.9z" fill="#6D6E71"/><path data-cppathid="10019" d="M102.1,153.9h1.1v8.5h-1.1V153.9z" fill="#6D6E71"/><path data-cppathid="10020" d="M106.2,155v1.7h1.5v0.8h-1.5v3.1c0,0.7,0.2,1.1,0.8,1.1c0.3,0,0.5,0,0.6-0.1l0,0.8    c-0.2,0.1-0.5,0.1-0.9,0.1c-0.5,0-0.9-0.2-1.1-0.4c-0.3-0.3-0.4-0.8-0.4-1.5v-3.2h-0.9v-0.8h0.9v-1.4L106.2,155z" fill="#6D6E71"/><path data-cppathid="10021" d="M113.8,160.9c0,0.6,0,1.1,0,1.6h-0.9l-0.1-0.9h0c-0.3,0.5-0.9,1.1-1.9,1.1c-0.9,0-2-0.5-2-2.5v-3.4h1.1    v3.2c0,1.1,0.3,1.8,1.3,1.8c0.7,0,1.2-0.5,1.4-1c0.1-0.2,0.1-0.3,0.1-0.5v-3.6h1.1V160.9z" fill="#6D6E71"/><path data-cppathid="10022" d="M115.5,158.4c0-0.7,0-1.3,0-1.8h0.9l0,1.1h0c0.3-0.8,0.9-1.3,1.6-1.3c0.1,0,0.2,0,0.3,0v1    c-0.1,0-0.2,0-0.4,0c-0.7,0-1.3,0.6-1.4,1.4c0,0.1,0,0.3,0,0.5v3.1h-1V158.4z" fill="#6D6E71"/><path data-cppathid="10023" d="M122.6,162.4l-0.1-0.7h0c-0.3,0.5-0.9,0.9-1.8,0.9c-1.2,0-1.8-0.8-1.8-1.7c0-1.4,1.2-2.2,3.5-2.2v-0.1    c0-0.5-0.1-1.3-1.3-1.3c-0.5,0-1.1,0.2-1.5,0.4l-0.2-0.7c0.5-0.3,1.2-0.5,1.9-0.5c1.8,0,2.2,1.2,2.2,2.4v2.2c0,0.5,0,1,0.1,1.4    H122.6z M122.5,159.5c-1.2,0-2.5,0.2-2.5,1.3c0,0.7,0.5,1,1,1c0.8,0,1.2-0.5,1.4-1c0-0.1,0.1-0.2,0.1-0.3V159.5z" fill="#6D6E71"/><path data-cppathid="10024" d="M125.2,153.9h1.1v8.5h-1.1V153.9z" fill="#6D6E71"/><path data-cppathid="10025" d="M128,153.9h1.1v8.5H128V153.9z" fill="#6D6E71"/><path data-cppathid="10026" d="M131.2,156.6l1.3,3.4c0.1,0.4,0.3,0.8,0.4,1.2h0c0.1-0.3,0.2-0.8,0.4-1.2l1.2-3.4h1.1l-1.6,4.1    c-0.8,2-1.3,3-2,3.6c-0.5,0.5-1,0.6-1.3,0.7l-0.3-0.9c0.3-0.1,0.6-0.3,0.9-0.5c0.3-0.2,0.6-0.6,0.9-1.2c0-0.1,0.1-0.2,0.1-0.3    c0-0.1,0-0.1-0.1-0.3l-2.1-5.4H131.2z" fill="#6D6E71"/><path data-cppathid="10027" d="M144.8,162.2c-0.4,0.2-1.2,0.4-2.1,0.4c-2.3,0-4-1.4-4-4.1c0-2.5,1.7-4.3,4.2-4.3c1,0,1.6,0.2,1.9,0.4    l-0.3,0.9c-0.4-0.2-1-0.3-1.6-0.3c-1.9,0-3.2,1.2-3.2,3.3c0,2,1.1,3.3,3.1,3.3c0.6,0,1.3-0.1,1.7-0.3L144.8,162.2z" fill="#6D6E71"/><path data-cppathid="10028" d="M151.2,159.5c0,2.1-1.5,3.1-2.9,3.1c-1.6,0-2.8-1.2-2.8-3c0-1.9,1.3-3.1,2.9-3.1    C150,156.5,151.2,157.7,151.2,159.5z M146.5,159.6c0,1.3,0.7,2.2,1.8,2.2c1,0,1.8-0.9,1.8-2.3c0-1-0.5-2.2-1.7-2.2    S146.5,158.4,146.5,159.6z" fill="#6D6E71"/><path data-cppathid="10029" d="M152.5,158.2c0-0.6,0-1.1,0-1.6h0.9l0,0.9h0c0.3-0.6,0.9-1.1,1.8-1.1c0.8,0,1.4,0.5,1.6,1.2h0    c0.2-0.3,0.4-0.6,0.6-0.8c0.3-0.3,0.7-0.4,1.3-0.4c0.8,0,1.9,0.5,1.9,2.5v3.4h-1v-3.3c0-1.1-0.4-1.8-1.3-1.8c-0.6,0-1.1,0.4-1.2,1    c0,0.1-0.1,0.3-0.1,0.5v3.6h-1V159c0-0.9-0.4-1.6-1.2-1.6c-0.7,0-1.1,0.5-1.3,1.1c-0.1,0.2-0.1,0.3-0.1,0.5v3.5h-1V158.2z" fill="#6D6E71"/><path data-cppathid="10030" d="M162.5,158.5c0-0.7,0-1.3,0-1.9h0.9l0,1h0c0.4-0.7,1.1-1.1,2.1-1.1c1.4,0,2.5,1.2,2.5,3    c0,2.1-1.3,3.1-2.6,3.1c-0.8,0-1.4-0.3-1.8-0.9h0v3.2h-1V158.5z M163.6,160.1c0,0.2,0,0.3,0,0.4c0.2,0.7,0.8,1.2,1.6,1.2    c1.1,0,1.8-0.9,1.8-2.2c0-1.2-0.6-2.2-1.7-2.2c-0.7,0-1.4,0.5-1.6,1.3c0,0.1-0.1,0.3-0.1,0.4V160.1z" fill="#6D6E71"/><path data-cppathid="10031" d="M172.6,162.4l-0.1-0.7h0c-0.3,0.5-0.9,0.9-1.8,0.9c-1.2,0-1.8-0.8-1.8-1.7c0-1.4,1.2-2.2,3.5-2.2v-0.1    c0-0.5-0.1-1.3-1.3-1.3c-0.5,0-1.1,0.2-1.5,0.4l-0.2-0.7c0.5-0.3,1.2-0.5,1.9-0.5c1.8,0,2.2,1.2,2.2,2.4v2.2c0,0.5,0,1,0.1,1.4    H172.6z M172.4,159.5c-1.2,0-2.5,0.2-2.5,1.3c0,0.7,0.5,1,1,1c0.8,0,1.2-0.5,1.4-1c0-0.1,0.1-0.2,0.1-0.3V159.5z" fill="#6D6E71"/><path data-cppathid="10032" d="M176.4,155v1.7h1.5v0.8h-1.5v3.1c0,0.7,0.2,1.1,0.8,1.1c0.3,0,0.5,0,0.6-0.1l0,0.8    c-0.2,0.1-0.5,0.1-0.9,0.1c-0.5,0-0.9-0.2-1.1-0.4c-0.3-0.3-0.4-0.8-0.4-1.5v-3.2h-0.9v-0.8h0.9v-1.4L176.4,155z" fill="#6D6E71"/><path data-cppathid="10033" d="M180.2,155c0,0.4-0.3,0.6-0.7,0.6c-0.4,0-0.6-0.3-0.6-0.6c0-0.4,0.3-0.7,0.7-0.7    C180,154.3,180.2,154.6,180.2,155z M179.1,162.4v-5.8h1.1v5.8H179.1z" fill="#6D6E71"/><path data-cppathid="10034" d="M181.8,162.4c0-0.4,0-1,0-1.5v-7h1v3.7h0c0.4-0.6,1-1.1,2-1.1c1.4,0,2.5,1.2,2.5,3c0,2.1-1.3,3.1-2.6,3.1    c-0.8,0-1.5-0.3-1.9-1.1h0l0,1H181.8z M182.9,160.1c0,0.1,0,0.3,0,0.4c0.2,0.7,0.8,1.2,1.6,1.2c1.1,0,1.8-0.9,1.8-2.2    c0-1.2-0.6-2.2-1.7-2.2c-0.7,0-1.4,0.5-1.6,1.3c0,0.1-0.1,0.3-0.1,0.4V160.1z" fill="#6D6E71"/><path data-cppathid="10035" d="M188.7,153.9h1.1v8.5h-1.1V153.9z" fill="#6D6E71"/><path data-cppathid="10036" d="M192.1,159.7c0,1.4,0.9,2,2,2c0.8,0,1.2-0.1,1.6-0.3l0.2,0.8c-0.4,0.2-1,0.4-1.9,0.4    c-1.8,0-2.9-1.2-2.9-2.9c0-1.8,1-3.1,2.7-3.1c1.9,0,2.4,1.7,2.4,2.7c0,0.2,0,0.4,0,0.5H192.1z M195.2,159c0-0.7-0.3-1.7-1.5-1.7    c-1.1,0-1.5,1-1.6,1.7H195.2z" fill="#6D6E71"/><path data-cppathid="10037" d="M205.8,162.2c-0.4,0.2-1.2,0.4-2.1,0.4c-2.3,0-4-1.4-4-4.1c0-2.5,1.7-4.3,4.2-4.3c1,0,1.6,0.2,1.9,0.4    l-0.3,0.9c-0.4-0.2-1-0.3-1.6-0.3c-1.9,0-3.2,1.2-3.2,3.3c0,2,1.1,3.3,3.1,3.3c0.6,0,1.3-0.1,1.7-0.3L205.8,162.2z" fill="#6D6E71"/><path data-cppathid="10038" d="M212.2,159.5c0,2.1-1.5,3.1-2.9,3.1c-1.6,0-2.8-1.2-2.8-3c0-1.9,1.3-3.1,2.9-3.1    C211.1,156.5,212.2,157.7,212.2,159.5z M207.6,159.6c0,1.3,0.7,2.2,1.8,2.2c1,0,1.8-0.9,1.8-2.3c0-1-0.5-2.2-1.7-2.2    S207.6,158.4,207.6,159.6z" fill="#6D6E71"/><path data-cppathid="10039" d="M213.5,158.2c0-0.6,0-1.1,0-1.6h0.9l0.1,1h0c0.3-0.6,1-1.1,1.9-1.1c0.8,0,2.1,0.5,2.1,2.5v3.5h-1.1v-3.4    c0-0.9-0.3-1.7-1.3-1.7c-0.7,0-1.2,0.5-1.4,1.1c0,0.1-0.1,0.3-0.1,0.5v3.5h-1.1V158.2z" fill="#6D6E71"/><path data-cppathid="10040" d="M220.1,161.4c0.3,0.2,0.9,0.4,1.4,0.4c0.8,0,1.1-0.4,1.1-0.9c0-0.5-0.3-0.8-1.1-1.1    c-1-0.4-1.5-0.9-1.5-1.6c0-0.9,0.8-1.7,2-1.7c0.6,0,1.1,0.2,1.4,0.4l-0.3,0.8c-0.2-0.1-0.6-0.3-1.2-0.3c-0.6,0-1,0.4-1,0.8    c0,0.5,0.3,0.7,1.1,1c1,0.4,1.5,0.9,1.5,1.8c0,1-0.8,1.7-2.2,1.7c-0.6,0-1.2-0.2-1.6-0.4L220.1,161.4z" fill="#6D6E71"/><path data-cppathid="10041" d="M229.8,160.9c0,0.6,0,1.1,0,1.6h-0.9l-0.1-0.9h0c-0.3,0.5-0.9,1.1-1.9,1.1c-0.9,0-2-0.5-2-2.5v-3.4h1.1    v3.2c0,1.1,0.3,1.8,1.3,1.8c0.7,0,1.2-0.5,1.4-1c0.1-0.2,0.1-0.3,0.1-0.5v-3.6h1.1V160.9z" fill="#6D6E71"/><path data-cppathid="10042" d="M231.6,153.9h1.1v8.5h-1.1V153.9z" fill="#6D6E71"/><path data-cppathid="10043" d="M235.7,155v1.7h1.5v0.8h-1.5v3.1c0,0.7,0.2,1.1,0.8,1.1c0.3,0,0.5,0,0.6-0.1l0,0.8    c-0.2,0.1-0.5,0.1-0.9,0.1c-0.5,0-0.9-0.2-1.1-0.4c-0.3-0.3-0.4-0.8-0.4-1.5v-3.2h-0.9v-0.8h0.9v-1.4L235.7,155z" fill="#6D6E71"/><path data-cppathid="10044" d="M239.6,155c0,0.4-0.3,0.6-0.7,0.6c-0.4,0-0.6-0.3-0.6-0.6c0-0.4,0.3-0.7,0.7-0.7    C239.3,154.3,239.6,154.6,239.6,155z M238.4,162.4v-5.8h1.1v5.8H238.4z" fill="#6D6E71"/><path data-cppathid="10045" d="M241.2,158.2c0-0.6,0-1.1,0-1.6h0.9l0.1,1h0c0.3-0.6,1-1.1,1.9-1.1c0.8,0,2.1,0.5,2.1,2.5v3.5h-1.1v-3.4    c0-0.9-0.3-1.7-1.3-1.7c-0.7,0-1.2,0.5-1.4,1.1c0,0.1-0.1,0.3-0.1,0.5v3.5h-1.1V158.2z" fill="#6D6E71"/><path data-cppathid="10046" d="M252.9,156.6c0,0.4,0,0.9,0,1.6v3.4c0,1.3-0.3,2.1-0.8,2.7c-0.6,0.5-1.4,0.7-2.1,0.7    c-0.7,0-1.5-0.2-1.9-0.5l0.3-0.8c0.4,0.2,1,0.5,1.7,0.5c1.1,0,1.9-0.6,1.9-2v-0.6h0c-0.3,0.5-0.9,1-1.8,1c-1.4,0-2.5-1.2-2.5-2.8    c0-2,1.3-3.1,2.6-3.1c1,0,1.6,0.5,1.8,1h0l0-0.9H252.9z M251.8,158.9c0-0.2,0-0.3-0.1-0.5c-0.2-0.6-0.7-1.1-1.5-1.1    c-1,0-1.7,0.9-1.7,2.2c0,1.1,0.6,2.1,1.7,2.1c0.6,0,1.2-0.4,1.5-1.1c0.1-0.2,0.1-0.4,0.1-0.6V158.9z" fill="#6D6E71"/></g><g enable-background="new    "><path data-cppathid="10047" d="M262.8,162.4c-0.2-0.2-0.4-0.5-0.8-0.8c-0.7,0.6-1.5,0.9-2.4,0.9c-1.6,0-2.5-1.1-2.5-2.3    c0-1.1,0.7-1.9,1.6-2.4v0c-0.4-0.5-0.7-1.1-0.7-1.7c0-1,0.7-2,2.1-2c1,0,1.8,0.7,1.8,1.7c0,0.9-0.5,1.5-1.8,2.2v0    c0.7,0.8,1.5,1.7,2,2.3c0.4-0.6,0.6-1.3,0.8-2.4h1c-0.2,1.3-0.6,2.3-1.2,3c0.4,0.5,0.9,0.9,1.3,1.4H262.8z M261.5,161.1    c-0.5-0.5-1.4-1.5-2.3-2.5c-0.4,0.3-1,0.8-1,1.6c0,0.9,0.7,1.6,1.7,1.6C260.5,161.8,261.1,161.5,261.5,161.1z M259,156.1    c0,0.6,0.3,1,0.6,1.5c0.8-0.5,1.3-0.9,1.3-1.6c0-0.5-0.3-1-0.9-1C259.4,154.9,259,155.5,259,156.1z" fill="#8DC63F"/></g><g enable-background="new    "><path data-cppathid="10048" d="M268.6,155.2h-2.5v-0.9h6v0.9h-2.5v7.2h-1.1V155.2z" fill="#6D6E71"/><path data-cppathid="10049" d="M272.4,158.4c0-0.7,0-1.3,0-1.8h0.9l0,1.1h0c0.3-0.8,0.9-1.3,1.6-1.3c0.1,0,0.2,0,0.3,0v1    c-0.1,0-0.2,0-0.4,0c-0.7,0-1.3,0.6-1.4,1.4c0,0.1,0,0.3,0,0.5v3.1h-1V158.4z" fill="#6D6E71"/><path data-cppathid="10050" d="M279.5,162.4l-0.1-0.7h0c-0.3,0.5-0.9,0.9-1.8,0.9c-1.2,0-1.8-0.8-1.8-1.7c0-1.4,1.2-2.2,3.5-2.2v-0.1    c0-0.5-0.1-1.3-1.3-1.3c-0.5,0-1.1,0.2-1.5,0.4l-0.2-0.7c0.5-0.3,1.2-0.5,1.9-0.5c1.8,0,2.2,1.2,2.2,2.4v2.2c0,0.5,0,1,0.1,1.4    H279.5z M279.4,159.5c-1.2,0-2.5,0.2-2.5,1.3c0,0.7,0.5,1,1,1c0.8,0,1.2-0.5,1.4-1c0-0.1,0.1-0.2,0.1-0.3V159.5z" fill="#6D6E71"/><path data-cppathid="10051" d="M283.3,155c0,0.4-0.3,0.6-0.7,0.6c-0.4,0-0.6-0.3-0.6-0.6c0-0.4,0.3-0.7,0.7-0.7    C283,154.3,283.3,154.6,283.3,155z M282.1,162.4v-5.8h1.1v5.8H282.1z" fill="#6D6E71"/><path data-cppathid="10052" d="M284.9,158.2c0-0.6,0-1.1,0-1.6h0.9l0.1,1h0c0.3-0.6,1-1.1,1.9-1.1c0.8,0,2.1,0.5,2.1,2.5v3.5h-1.1v-3.4    c0-0.9-0.3-1.7-1.3-1.7c-0.7,0-1.2,0.5-1.4,1.1c0,0.1-0.1,0.3-0.1,0.5v3.5h-1.1V158.2z" fill="#6D6E71"/><path data-cppathid="10053" d="M292.8,155c0,0.4-0.3,0.6-0.7,0.6c-0.4,0-0.6-0.3-0.6-0.6c0-0.4,0.3-0.7,0.7-0.7    C292.5,154.3,292.8,154.6,292.8,155z M291.6,162.4v-5.8h1.1v5.8H291.6z" fill="#6D6E71"/><path data-cppathid="10054" d="M294.4,158.2c0-0.6,0-1.1,0-1.6h0.9l0.1,1h0c0.3-0.6,1-1.1,1.9-1.1c0.8,0,2.1,0.5,2.1,2.5v3.5h-1.1v-3.4    c0-0.9-0.3-1.7-1.3-1.7c-0.7,0-1.2,0.5-1.4,1.1c0,0.1-0.1,0.3-0.1,0.5v3.5h-1.1V158.2z" fill="#6D6E71"/><path data-cppathid="10055" d="M306.1,156.6c0,0.4,0,0.9,0,1.6v3.4c0,1.3-0.3,2.1-0.8,2.7c-0.6,0.5-1.4,0.7-2.1,0.7    c-0.7,0-1.5-0.2-1.9-0.5l0.3-0.8c0.4,0.2,1,0.5,1.7,0.5c1.1,0,1.9-0.6,1.9-2v-0.6h0c-0.3,0.5-0.9,1-1.8,1c-1.4,0-2.5-1.2-2.5-2.8    c0-2,1.3-3.1,2.6-3.1c1,0,1.6,0.5,1.8,1h0l0-0.9H306.1z M305,158.9c0-0.2,0-0.3-0.1-0.5c-0.2-0.6-0.7-1.1-1.5-1.1    c-1,0-1.7,0.9-1.7,2.2c0,1.1,0.6,2.1,1.7,2.1c0.6,0,1.2-0.4,1.5-1.1c0.1-0.2,0.1-0.4,0.1-0.6V158.9z" fill="#6D6E71"/><path data-cppathid="10056" d="M310.2,161.2c0.5,0.3,1.2,0.5,1.9,0.5c1.1,0,1.7-0.6,1.7-1.4c0-0.8-0.4-1.2-1.5-1.6    c-1.3-0.5-2.1-1.2-2.1-2.3c0-1.3,1-2.2,2.6-2.2c0.8,0,1.4,0.2,1.8,0.4l-0.3,0.9c-0.3-0.1-0.8-0.4-1.5-0.4c-1.1,0-1.5,0.7-1.5,1.2    c0,0.8,0.5,1.1,1.6,1.6c1.4,0.5,2.1,1.2,2.1,2.4c0,1.2-0.9,2.3-2.8,2.3c-0.8,0-1.6-0.2-2.1-0.5L310.2,161.2z" fill="#6D6E71"/><path data-cppathid="10057" d="M321.6,159.5c0,2.1-1.5,3.1-2.9,3.1c-1.6,0-2.8-1.2-2.8-3c0-1.9,1.3-3.1,2.9-3.1    C320.4,156.5,321.6,157.7,321.6,159.5z M317,159.6c0,1.3,0.7,2.2,1.8,2.2c1,0,1.8-0.9,1.8-2.3c0-1-0.5-2.2-1.7-2.2    S317,158.4,317,159.6z" fill="#6D6E71"/><path data-cppathid="10058" d="M322.9,153.9h1.1v8.5h-1.1V153.9z" fill="#6D6E71"/><path data-cppathid="10059" d="M330.6,160.9c0,0.6,0,1.1,0,1.6h-0.9l-0.1-0.9h0c-0.3,0.5-0.9,1.1-1.9,1.1c-0.9,0-2-0.5-2-2.5v-3.4h1.1    v3.2c0,1.1,0.3,1.8,1.3,1.8c0.7,0,1.2-0.5,1.4-1c0.1-0.2,0.1-0.3,0.1-0.5v-3.6h1.1V160.9z" fill="#6D6E71"/><path data-cppathid="10060" d="M333.6,155v1.7h1.5v0.8h-1.5v3.1c0,0.7,0.2,1.1,0.8,1.1c0.3,0,0.5,0,0.6-0.1l0,0.8    c-0.2,0.1-0.5,0.1-0.9,0.1c-0.5,0-0.9-0.2-1.1-0.4c-0.3-0.3-0.4-0.8-0.4-1.5v-3.2h-0.9v-0.8h0.9v-1.4L333.6,155z" fill="#6D6E71"/><path data-cppathid="10061" d="M337.5,155c0,0.4-0.3,0.6-0.7,0.6c-0.4,0-0.6-0.3-0.6-0.6c0-0.4,0.3-0.7,0.7-0.7    C337.3,154.3,337.5,154.6,337.5,155z M336.3,162.4v-5.8h1.1v5.8H336.3z" fill="#6D6E71"/><path data-cppathid="10062" d="M344.4,159.5c0,2.1-1.5,3.1-2.9,3.1c-1.6,0-2.8-1.2-2.8-3c0-1.9,1.3-3.1,2.9-3.1    C343.3,156.5,344.4,157.7,344.4,159.5z M339.8,159.6c0,1.3,0.7,2.2,1.8,2.2c1,0,1.8-0.9,1.8-2.3c0-1-0.5-2.2-1.7-2.2    S339.8,158.4,339.8,159.6z" fill="#6D6E71"/><path data-cppathid="10063" d="M345.7,158.2c0-0.6,0-1.1,0-1.6h0.9l0.1,1h0c0.3-0.6,1-1.1,1.9-1.1c0.8,0,2.1,0.5,2.1,2.5v3.5h-1.1v-3.4    c0-0.9-0.3-1.7-1.3-1.7c-0.7,0-1.2,0.5-1.4,1.1c0,0.1-0.1,0.3-0.1,0.5v3.5h-1.1V158.2z" fill="#6D6E71"/><path data-cppathid="10064" d="M352.3,161.4c0.3,0.2,0.9,0.4,1.4,0.4c0.8,0,1.1-0.4,1.1-0.9c0-0.5-0.3-0.8-1.1-1.1    c-1-0.4-1.5-0.9-1.5-1.6c0-0.9,0.8-1.7,2-1.7c0.6,0,1.1,0.2,1.4,0.4l-0.3,0.8c-0.2-0.1-0.6-0.3-1.2-0.3c-0.6,0-1,0.4-1,0.8    c0,0.5,0.3,0.7,1.1,1c1,0.4,1.5,0.9,1.5,1.8c0,1-0.8,1.7-2.2,1.7c-0.6,0-1.2-0.2-1.6-0.4L352.3,161.4z" fill="#6D6E71"/></g></g></svg>