<?xml version="1.0" encoding="UTF-8"?>
<svg xmlns="http://www.w3.org/2000/svg" onmouseup="{ if(window.parent.document.onmouseup) window.parent.document.onmouseup(arguments[0]);}" xml:space="preserve" enable-background="new 0 0 736 116" viewBox="0 0 736 116" y="0px" x="0px" id="Layer_1" version="1.1" xmlns:xlink="http://www.w3.org/1999/xlink"><path data-cppathid="10000" d="M707,111.6H5.7V6.6h725.7v80.7C731.3,100.8,720.5,111.6,707,111.6z" fill="#00AEEF"/><path data-cppathid="10001" d="M702.9,98.5c5.9-2.8,15.4-9.4,14.7-23c0,0-0.2-2.9-0.9-6.2c-0.3-1.9-1.3-1.8-1.3-1.8  c-0.8-0.1-1.7,0.8-1.7,0.8c-4.7,3.6-12.5,5.2-12.5,5.2c-14.4,3.9-16.5,11.4-15.8,17c0,0,0,0.2,0,0.3c0.7,4.5,4.1,8.3,8.6,9.3  c-4.1-9.8-3.9-15.1-3.9-15.3c0-0.2,0.1-0.3,0.3-0.3c0.2,0,0.3,0.1,0.4,0.2c1.5,4.4,3.4,9.2,4.2,10.3c0.4-1,1.9-4.3,4.4-8.1  c2.8-4.2,5.8-8.5,12.3-12c0.2-0.1,0.4,0,0.5,0.1c0.1,0.2,0.1,0.4-0.1,0.5c0,0-2.4,1.8-6.4,7.2c-3.5,4.7-7.6,12-8.5,20.9  c0,0,0,0.5,0.2,0.6c0.2,0.1,0.6,0.1,0.8-0.7C698.1,103.3,698.3,100.6,702.9,98.5" fill="#FFFFFF"/></svg>