<?xml version="1.0" encoding="UTF-8"?>
<svg xmlns="http://www.w3.org/2000/svg" onmouseup="{ if(window.parent.document.onmouseup) window.parent.document.onmouseup(arguments[0]);}" xml:space="preserve" enable-background="new 0 0 711 109" viewBox="0 0 711 109" y="0px" x="0px" id="Layer_1" version="1.1" xmlns:xlink="http://www.w3.org/1999/xlink"><linearGradient y2="105.7745" x2="23.3819" y1="83.2972" x1="23.3819" gradientUnits="userSpaceOnUse" id="SVGID_1_"><stop style="stop-color:#00678F" offset="0"/><stop style="stop-color:#00AEEF" offset="1"/></linearGradient><path data-cppathid="10000" d="M9.2,98.7c0,0-0.1-0.1-0.1-0.1c0.5,0.7,2.2,2.2,2.8,2.7c1.8,1.4,6.7,4.4,12,4.5  c7.9,0.1,14.7,0,14.7,0l0-22.5l-14.2,0C7.2,83.4,7.2,94.8,9.2,98.7z" fill="url(#SVGID_1_)"/><path data-cppathid="10001" d="M6.3,92c-1-4.6-1.4-10.3-1.6-14.5c-0.1-3.3-0.1-5.6-0.1-5.6V58.3" fill="#126EAE"/><path data-cppathid="10002" d="M693.2,5H18.6c0,0-14,0-14,13.5v39.9v13.5c0,0,0,2.3,0.1,5.6c0.2,4.2,0.5,9.9,1.6,14.5  c0.7,2.6,1.6,4.9,2.8,6.6c0,0,0.1,0.1,0.1,0.1c-2-3.9-2-15.3,15.1-15.4l14.2,0l654.7-0.1c0,0,14,0,14-13.5V18.5  C707.1,18.5,707.1,5,693.2,5z" fill="#00AEEF"/></svg>