<?xml version="1.0" encoding="UTF-8"?>
<svg xmlns="http://www.w3.org/2000/svg" onmouseup="{ if(window.parent.document.onmouseup) window.parent.document.onmouseup(arguments[0]);}" xml:space="preserve" enable-background="new 4 80 331 85" viewBox="4 80 331 85" y="0px" x="0px" id="Layer_1" version="1.1" xmlns:xlink="http://www.w3.org/1999/xlink"><g><path data-cppathid="10000" d="M13.4,155.6V92.8h12.3l25.7,41.9V92.8h11.8v62.8H50.6l-25.3-41.1v41H13.4V155.6z" fill="#FFFFFF"/><path data-cppathid="10001" d="M102.9,141.1l12.1,2c-1.6,4.4-3.9,7.7-7.3,10.1c-3.3,2.3-7.5,3.4-12.5,3.4c-7.9,0-13.8-2.6-17.6-7.7   c-3-4.2-4.6-9.3-4.6-15.7c0-7.5,2-13.4,5.9-17.7c3.9-4.3,9-6.4,15-6.4c6.8,0,12.2,2.2,16,6.8c3.9,4.4,5.8,11.3,5.7,20.5H85.4   c0.1,3.6,1.1,6.4,3,8.4c1.8,2,4.2,3,6.9,3c1.8,0,3.4-0.5,4.8-1.6C101.3,145.1,102.3,143.3,102.9,141.1z M103.7,129   c-0.1-3.4-1-6.1-2.7-8c-1.7-1.8-3.8-2.7-6.3-2.7c-2.6,0-4.8,1-6.5,2.8c-1.7,2-2.6,4.6-2.6,7.7h18.1V129z" fill="#FFFFFF"/><path data-cppathid="10002" d="M119.7,155.6l16.4-23.5L120.3,110H135l8.1,12.5l8.5-12.5h14.1l-15.5,21.5l16.9,24h-14.8l-9.2-14.1   l-9.3,14.1h-14.1V155.6z" fill="#FFFFFF"/><path data-cppathid="10003" d="M195.2,110v9.6h-8.2v18.3c0,3.7,0.1,5.9,0.2,6.5s0.5,1.1,1.1,1.5c0.6,0.4,1.2,0.6,2.1,0.6   c1.1,0,2.7-0.4,4.8-1.1l1,9.3c-2.8,1.2-6,1.8-9.5,1.8c-2.2,0-4.2-0.4-5.9-1.1c-1.7-0.7-3.1-1.7-3.8-2.8c-0.9-1.1-1.4-2.7-1.7-4.7   c-0.2-1.4-0.4-4.2-0.4-8.5v-19.9h-5.5V110h5.5v-9.1l12.1-6.9v16H195.2z" fill="#FFFFFF"/></g><g><polygon data-cppathid="10004" points="214.5,135.7 271.4,135.7 271.4,159.5 328.1,126.7 271.4,94 271.4,117.8 214.5,117.8  " fill="#FFFFFF"/></g></svg>