<?xml version="1.0" encoding="UTF-8"?>
<svg xmlns="http://www.w3.org/2000/svg" onmouseup="{ if(window.parent.document.onmouseup) window.parent.document.onmouseup(arguments[0]);}" xml:space="preserve" enable-background="new 0 71 346 112" viewBox="0 71 346 112" y="0px" x="0px" id="Layer_1" version="1.1" xmlns:xlink="http://www.w3.org/1999/xlink"><g><path data-cppathid="10000" d="M9.7,148.4V98.2H31c5.4,0,9.2,0.4,11.7,1.4c2.4,0.9,4.4,2.5,5.9,4.8s2.2,4.9,2.2,7.9c0,3.8-1.2,6.9-3.4,9.3   s-5.6,4-10,4.6c2.2,1.3,4,2.7,5.5,4.2c1.5,1.6,3.4,4.2,5.8,8.2l6.1,9.8h-12l-7.3-10.9c-2.6-3.9-4.4-6.4-5.4-7.3c-0.9-1-2-1.7-3-2.1   s-2.7-0.5-5.1-0.5h-2.1v21H9.7V148.4z M19.8,119.4h7.5c4.8,0,7.9-0.2,9.1-0.6s2.2-1.2,2.8-2.1c0.7-1,1-2.3,1-3.8   c0-1.7-0.4-3-1.4-4.1c-0.9-1-2.2-1.7-3.8-2c-0.8-0.1-3.3-0.2-7.3-0.2h-7.9L19.8,119.4C19.8,119.4,19.8,119.4,19.8,119.4z" fill="#FFFFFF"/><path data-cppathid="10001" d="M81.3,136.8l9.6,1.6c-1.3,3.6-3.1,6.2-5.9,8.1c-2.6,1.9-6,2.7-10,2.7c-6.3,0-11-2.1-14.1-6.2   c-2.4-3.4-3.6-7.5-3.6-12.5c0-6,1.6-10.7,4.7-14.2s7.1-5.1,12-5.1c5.5,0,9.7,1.8,12.8,5.4c3.1,3.6,4.6,9,4.5,16.4h-24   c0.1,2.8,0.8,5,2.3,6.6s3.4,2.4,5.6,2.4c1.5,0,2.7-0.4,3.8-1.3C80,140,80.8,138.7,81.3,136.8z M81.9,127.2   c-0.1-2.8-0.8-4.9-2.2-6.4c-1.4-1.5-3-2.2-5-2.2c-2.1,0-3.9,0.7-5.2,2.3c-1.4,1.6-2,3.6-2,6.2H82v0.1H81.9z" fill="#FFFFFF"/><path data-cppathid="10002" d="M99,112h8.9v5.4c1.2-1.8,2.7-3.4,4.7-4.4c2-1.2,4.2-1.7,6.6-1.7c4.2,0,7.8,1.7,10.7,4.9   c2.9,3.4,4.4,7.9,4.4,13.9c0,6.1-1.5,10.8-4.4,14.2c-2.9,3.4-6.6,5-10.8,5c-2,0-3.8-0.4-5.5-1.2s-3.4-2.2-5.1-4.1v18.2h-9.7V112H99   z M108.5,129.6c0,4.1,0.8,7.1,2.4,9c1.6,2,3.6,2.9,5.9,2.9c2.2,0,4.1-0.9,5.6-2.7s2.2-4.7,2.2-8.8c0-3.8-0.7-6.6-2.3-8.5   c-1.6-1.9-3.5-2.7-5.7-2.7c-2.3,0-4.3,0.9-5.9,2.7C109.3,123.4,108.5,126,108.5,129.6z" fill="#FFFFFF"/><path data-cppathid="10003" d="M142.1,148.4V98.2h9.7v50.2H142.1z" fill="#FFFFFF"/><path data-cppathid="10004" d="M168.8,123.2l-8.7-1.6c0.9-3.5,2.6-6.1,5-7.8c2.4-1.7,6-2.5,10.7-2.5c4.3,0,7.5,0.5,9.6,1.6   c2.1,1,3.6,2.3,4.4,3.9c0.8,1.6,1.3,4.4,1.3,8.6v11.1c0,3.1,0.1,5.6,0.4,7c0.3,1.5,0.8,3.1,1.7,4.8h-9.4c-0.2-0.6-0.5-1.6-0.9-2.8   c-0.2-0.5-0.3-0.9-0.3-1.2c-1.7,1.6-3.4,2.8-5.2,3.6c-1.9,0.8-3.9,1.2-6,1.2c-3.8,0-6.7-1-8.8-3c-2.2-2-3.3-4.6-3.3-7.7   c0-2.1,0.5-3.9,1.5-5.5c0.9-1.6,2.3-2.8,4.1-3.7c1.8-0.8,4.3-1.6,7.7-2.2c4.5-0.8,7.7-1.7,9.3-2.4v-0.9c0-1.9-0.4-3.1-1.4-4   c-0.9-0.8-2.6-1.2-5.1-1.2c-1.7,0-3,0.3-4,1C170.1,120.2,169.4,121.5,168.8,123.2z M181.7,130.9c-1.3,0.4-3.1,0.9-5.9,1.5   c-2.6,0.5-4.4,1.2-5.2,1.7c-1.3,0.8-1.9,2-1.9,3.4s0.5,2.5,1.5,3.5c1,0.9,2.3,1.5,3.9,1.5c1.8,0,3.4-0.5,4.9-1.7   c1.2-0.8,1.9-1.9,2.3-3.1c0.2-0.8,0.4-2.4,0.4-4.7V130.9L181.7,130.9z" fill="#FFFFFF"/><path data-cppathid="10005" d="M196.1,112h10.3l8.7,25.8l8.5-25.8h10l-12.8,35l-2.3,6.3c-0.8,2.1-1.7,3.8-2.4,4.8c-0.7,1.2-1.7,2-2.6,2.7   c-0.9,0.7-2.2,1.3-3.7,1.6c-1.5,0.4-3,0.6-4.9,0.6s-3.7-0.2-5.5-0.6l-0.8-7.6c1.5,0.3,2.8,0.4,4.1,0.4c2.2,0,3.9-0.6,4.9-2   s1.9-2.9,2.4-5L196.1,112z" fill="#FFFFFF"/></g><path data-cppathid="10006" d="M293.8,79.1c-24.2,0-44,19.7-44,44c0,11.9,4.7,22.7,12.4,30.5l-10.7,10.6l40.3,10.9l-10.7-40.3l-10.7,10.7  c-5.6-5.9-9-13.7-9-22.5c0-17.9,14.6-32.5,32.5-32.5s32.5,14.6,32.5,32.5c0,9-3.7,17.1-9.6,23l8.2,8.1c7.9-8,12.8-18.9,12.8-31.1  C337.7,98.7,318,79.1,293.8,79.1z" fill="#FFFFFF"/></svg>