<?xml version="1.0" encoding="UTF-8"?>
<svg xmlns="http://www.w3.org/2000/svg" onmouseup="{ if(window.parent.document.onmouseup) window.parent.document.onmouseup(arguments[0]);}" xml:space="preserve" enable-background="new 0 0 250 281.4" viewBox="0 0 250 281.4" y="0px" x="0px" id="Layer_1" version="1.1" xmlns:xlink="http://www.w3.org/1999/xlink"><g><path data-cppathid="10000" d="M135.6,237.7c44.7-20.9,115.8-70.3,110.7-172.7c0,0-1.6-22.1-7-46.5c-2.3-14-10-13.4-10-13.4   c-6-0.4-13,5.7-13,5.7C180.8,37.9,122,50.1,122,50.1C13.5,79.4-2.4,136,3.1,177.8c0,0,0.2,1.6,0.3,2.1c5,34.2,30.8,62.2,65,69.6   c-30.9-73.7-29.2-113.4-29.1-115.3c0.1-1.3,1.1-2.4,2.4-2.6c1.3-0.2,2.6,0.6,3,1.8c11.5,33.3,25.6,68.9,31.3,77.1   c3.1-7.2,14.2-32,33.4-61c21-31.7,43.9-64,92.3-90c1.3-0.7,2.8-0.3,3.6,0.9c0.8,1.2,0.5,2.8-0.6,3.7c-0.3,0.2-17.8,13.3-47.9,54.1   c-26.1,35.3-57.5,90.4-64,156.9c0,0-0.2,3.7,1.5,4.4c1.7,0.7,4.7,0.7,5.6-5.6C99.8,273.9,101.4,253.7,135.6,237.7" fill="#00AEEF"/></g></svg>